<?xml version="1.0" encoding="UTF-8" standalone="no"?>
<!-- Created with Inkscape (http://www.inkscape.org/) -->

<svg
   width="128"
   height="128"
   viewBox="0 0 33.866667 33.866667"
   version="1.1"
   id="svg1"
   inkscape:version="1.3.2 (091e20e, 2023-11-25, custom)"
   sodipodi:docname="Icons.svg"
   xml:space="preserve"
   inkscape:export-filename="FileShaderVariant.png"
   inkscape:export-xdpi="96"
   inkscape:export-ydpi="96"
   xmlns:inkscape="http://www.inkscape.org/namespaces/inkscape"
   xmlns:sodipodi="http://sodipodi.sourceforge.net/DTD/sodipodi-0.dtd"
   xmlns="http://www.w3.org/2000/svg"
   xmlns:svg="http://www.w3.org/2000/svg"><sodipodi:namedview
     id="namedview1"
     pagecolor="#505050"
     bordercolor="#ffffff"
     borderopacity="1"
     inkscape:showpageshadow="false"
     inkscape:pageopacity="0"
     inkscape:pagecheckerboard="1"
     inkscape:deskcolor="#505050"
     inkscape:document-units="px"
     labelstyle="default"
     inkscape:clip-to-page="false"
     shape-rendering="auto"
     showgrid="true"
     inkscape:zoom="8"
     inkscape:cx="71.5"
     inkscape:cy="66.5625"
     inkscape:window-width="2560"
     inkscape:window-height="1377"
     inkscape:window-x="2552"
     inkscape:window-y="-8"
     inkscape:window-maximized="1"
     inkscape:current-layer="layer1"
     showguides="false"><inkscape:grid
       id="grid1"
       units="px"
       originx="0"
       originy="0"
       spacingx="0.26458334"
       spacingy="0.26458334"
       empcolor="#0099e5"
       empopacity="0.30196078"
       color="#0099e5"
       opacity="0.14901961"
       empspacing="5"
       dotted="false"
       gridanglex="30"
       gridanglez="30"
       visible="true" /></sodipodi:namedview><defs
     id="defs1"><inkscape:path-effect
       effect="copy_rotate"
       starting_point="0,0"
       origin="-10.4,11.91"
       id="path-effect11"
       is_visible="true"
       lpeversion="1.2"
       lpesatellites=""
       method="normal"
       num_copies="11"
       starting_angle="0"
       rotation_angle="32.727273"
       gap="-0.01"
       copies_to_360="true"
       mirror_copies="false"
       split_items="false"
       link_styles="false" /><inkscape:path-effect
       effect="gears"
       id="path-effect8"
       is_visible="true"
       lpeversion="1"
       teeth="8"
       phi="0"
       min_radius="5" /><inkscape:path-effect
       effect="fillet_chamfer"
       id="path-effect7"
       is_visible="true"
       lpeversion="1"
       nodesatellites_param="F,0,0,1,0,2,0,1 @ F,0,0,1,0,1,0,1 @ F,0,0,1,0,1,0,1 @ F,0,0,1,0,2,0,1 @ F,0,0,1,0,2,0,1"
       radius="1"
       unit="px"
       method="auto"
       mode="F"
       chamfer_steps="1"
       flexible="false"
       use_knot_distance="true"
       apply_no_radius="true"
       apply_with_radius="true"
       only_selected="false"
       hide_knots="false" /><inkscape:path-effect
       effect="fillet_chamfer"
       id="path-effect26"
       is_visible="true"
       lpeversion="1"
       nodesatellites_param="F,0,0,1,0,2,0,1 @ F,0,0,1,0,1,0,1 @ F,0,0,1,0,1,0,1 @ F,0,0,1,0,2,0,1 @ F,0,0,1,0,2,0,1"
       radius="1"
       unit="px"
       method="auto"
       mode="F"
       chamfer_steps="1"
       flexible="false"
       use_knot_distance="true"
       apply_no_radius="true"
       apply_with_radius="true"
       only_selected="false"
       hide_knots="false" /><inkscape:path-effect
       effect="fillet_chamfer"
       id="path-effect24"
       is_visible="true"
       lpeversion="1"
       nodesatellites_param="F,0,0,1,0,2.6458335,0,1 @ F,0,0,1,0,2.1166651,0,1 @ F,0,0,1,0,2.1166651,0,1 @ F,0,0,1,0,1,0,1 @ F,0,0,1,0,1,0,1 | F,0,0,1,0,0.52916806,0,1 @ F,0,0,1,0,0.52916806,0,1 @ F,0,0,1,0,0.52916592,0,1 @ F,0,0,1,0,0.52916592,0,1"
       radius="1"
       unit="px"
       method="auto"
       mode="F"
       chamfer_steps="1"
       flexible="false"
       use_knot_distance="true"
       apply_no_radius="true"
       apply_with_radius="true"
       only_selected="false"
       hide_knots="false" /><inkscape:path-effect
       effect="fillet_chamfer"
       id="path-effect23"
       is_visible="true"
       lpeversion="1"
       nodesatellites_param="F,0,0,1,0,0.25,0,1 @ F,0,0,1,0,0.25,0,1 @ F,0,0,1,0,0.25,0,1 @ F,0,0,1,0,0.25,0,1 @ F,0,0,1,0,0.25,0,1 @ F,0,0,1,0,0.25,0,1 | F,0,0,1,0,0.25,0,1 @ F,0,0,1,0,0.25,0,1 @ F,0,0,1,0,0.25,0,1 @ F,0,0,1,0,0.25,0,1 @ F,0,0,1,0,0.25,0,1 | F,0,0,1,0,0.25,0,1 @ F,0,0,1,0,0.25,0,1 @ F,0,0,1,0,0.25,0,1 @ F,0,0,1,0,0.25,0,1"
       radius="0.25"
       unit="px"
       method="auto"
       mode="F"
       chamfer_steps="1"
       flexible="false"
       use_knot_distance="true"
       apply_no_radius="true"
       apply_with_radius="true"
       only_selected="false"
       hide_knots="false" /><inkscape:path-effect
       effect="fillet_chamfer"
       id="path-effect6"
       is_visible="true"
       lpeversion="1"
       nodesatellites_param="F,0,0,1,0,2,0,1 @ F,0,0,1,0,1,0,1 @ F,0,0,1,0,1,0,1 @ F,0,0,1,0,2,0,1 @ F,0,0,1,0,2,0,1"
       radius="1"
       unit="px"
       method="auto"
       mode="F"
       chamfer_steps="1"
       flexible="false"
       use_knot_distance="true"
       apply_no_radius="true"
       apply_with_radius="true"
       only_selected="false"
       hide_knots="false" /><inkscape:path-effect
       effect="roughen"
       id="path-effect4"
       is_visible="true"
       lpeversion="1.2"
       global_randomize="1;-1790144582"
       displace_x="0.160514;-850225642"
       displace_y="10;1"
       method="size"
       max_segment_size="0.481542"
       segments="2"
       handles="along"
       shift_nodes="true"
       fixed_displacement="false"
       spray_tool_friendly="false" /><inkscape:path-effect
       effect="vonkoch"
       id="path-effect3"
       is_visible="true"
       lpeversion="1"
       ref_path="M 5.0270836,16.933334 H 29.104168"
       generator="m 5.0270836,33.866669 h 8.0256944 m 8.025695,0 h 8.025695"
       similar_only="false"
       nbgenerations="4"
       drawall="true"
       maxComplexity="1000" /><inkscape:path-effect
       effect="rough_hatches"
       id="path-effect2"
       is_visible="true"
       lpeversion="1.2"
       direction="17.065626,11.933335 , 6.0192711,0"
       dist_rdm="75;1"
       growth="0"
       do_bend="true"
       bender="17.065626,16.933335 , 5,0"
       bottom_edge_variation="3.3866669;1"
       top_edge_variation="3.3866669;1"
       bottom_tgt_variation="0;1"
       top_tgt_variation="0;1"
       scale_bf="1"
       scale_bb="1"
       scale_tf="1"
       scale_tb="1"
       top_smth_variation="0;1"
       bottom_smth_variation="0;1"
       fat_output="true"
       stroke_width_top="1"
       stroke_width_bottom="1"
       front_thickness="1"
       back_thickness="0.25" /><inkscape:path-effect
       effect="fillet_chamfer"
       id="path-effect1"
       is_visible="true"
       lpeversion="1"
       nodesatellites_param="F,0,0,1,0,2,0,1 @ F,0,0,1,0,1,0,1 @ F,0,0,1,0,1,0,1 @ F,0,0,1,0,2,0,1 @ F,0,0,1,0,2,0,1"
       radius="1"
       unit="px"
       method="auto"
       mode="F"
       chamfer_steps="1"
       flexible="false"
       use_knot_distance="true"
       apply_no_radius="true"
       apply_with_radius="true"
       only_selected="false"
       hide_knots="false" /><inkscape:path-effect
       effect="fillet_chamfer"
       id="path-effect1-1"
       is_visible="true"
       lpeversion="1"
       nodesatellites_param="F,0,0,1,0,2,0,1 @ F,0,0,1,0,1,0,1 @ F,0,0,1,0,1,0,1 @ F,0,0,1,0,2,0,1 @ F,0,0,1,0,2,0,1"
       radius="1"
       unit="px"
       method="auto"
       mode="F"
       chamfer_steps="1"
       flexible="false"
       use_knot_distance="true"
       apply_no_radius="true"
       apply_with_radius="true"
       only_selected="false"
       hide_knots="false" /></defs><g
     inkscape:label="Layer 1"
     inkscape:groupmode="layer"
     id="layer1"
     style="display:inline"><path
       id="rect1"
       style="display:none;opacity:1;fill:#ffffff;fill-opacity:1;stroke:none;stroke-width:1.32292;stroke-linecap:square;stroke-miterlimit:3;stroke-dasharray:none;stroke-opacity:1;paint-order:markers stroke fill"
       d="M 7.0270836,0 H 21.489585 a 2.4142134,2.4142134 22.500002 0 1 1.707107,0.70710682 l 5.200369,5.20037008 a 2.4142137,2.4142137 67.500002 0 1 0.707107,1.7071068 V 31.866669 a 2,2 135 0 1 -2,2 H 7.0270836 a 2,2 45 0 1 -2,-2 V 2 a 2,2 135 0 1 2,-2 z"
       sodipodi:nodetypes="cccccc"
       transform="translate(-0.1322923)"
       inkscape:label="FileUnknown"
       inkscape:original-d="M 5.0270836,0 H 22.489585 l 6.614583,6.6145837 V 33.866669 H 5.0270836 Z"
       inkscape:path-effect="#path-effect1" /><g
       id="g23"
       inkscape:label="FileTexture"
       style="display:none"><path
         id="path7"
         style="opacity:1;fill:#ffffff;fill-opacity:1;stroke:none;stroke-width:1.32292;stroke-linecap:square;stroke-miterlimit:3;stroke-dasharray:none;stroke-opacity:1;paint-order:markers stroke fill"
         d="m 12.847106,12.841582 c -1.627405,0.121514 -2.9266516,1.420724 -3.0482238,3.048113 -0.010288,0.137721 -0.00993,0.362008 9.198e-4,0.49962 0.067561,0.857093 0.466734,1.654808 1.112229,2.222708 0.103637,0.09118 0.273849,0.07971 0.372769,-0.01662 0.727317,-0.708239 1.458938,-1.41208 2.184834,-2.121776 0.09872,-0.09652 0.25889,-0.09687 0.357913,-6.51e-4 0.546278,0.530802 1.09291,1.061236 1.639228,1.591999 0.09903,0.09621 0.251486,0.08842 0.331147,-0.02431 0.343864,-0.486624 0.549912,-1.057295 0.59624,-1.651349 0.01073,-0.13762 0.01099,-0.361852 7.15e-4,-0.499508 -0.121515,-1.627406 -1.420725,-2.926652 -3.048114,-3.048223 -0.137721,-0.01029 -0.362001,-0.01029 -0.499657,-9e-6 z m 9.435354,2.296314 -4.328099,4.994923 c -0.09042,0.104348 -0.08343,0.266925 0.01561,0.363132 1.078364,1.04758 2.156273,2.095616 3.235329,3.14248 0.0991,0.09614 0.291373,0.174069 0.429444,0.174069 h 3.779843 a 0.25,0.25 135 0 0 0.25,-0.25 V 18.912944 A 0.67024103,0.67024103 69.544477 0 0 25.500862,18.474012 L 22.609897,15.13789 a 0.21663305,0.21663305 179.99894 0 0 -0.327437,6e-6 z m -8.813008,1.705043 -5.0880415,4.942255 A 0.59136189,0.59136189 112.91636 0 0 8.2020834,22.209383 V 23.5625 a 0.25,0.25 45 0 0 0.25,0.25 H 20.753886 a 0.1014251,0.1014251 112.08242 0 0 0.07066,-0.174181 l -6.996437,-6.795388 a 0.25738552,0.25738552 179.99877 0 0 -0.358662,8e-6 z"
         inkscape:label="Shapes"
         inkscape:path-effect="#path-effect23"
         inkscape:original-d="m 13.096875,12.832292 c -1.826566,0 -3.307291,1.480725 -3.3072916,3.307291 0.00327,1.034359 0.4902836,2.007617 1.3161986,2.630331 0.84582,-0.825432 1.698587,-1.643762 2.542481,-2.471167 0.665705,0.647056 1.332046,1.293452 1.997811,1.94045 0.488391,-0.590864 0.756361,-1.333035 0.758093,-2.099614 -1e-6,-1.826567 -1.480725,-3.307291 -3.307292,-3.307291 z m 9.3493,2.116666 -4.655529,5.372799 c 1.197971,1.16365 2.39527,2.327976 3.594095,3.490743 h 4.279843 V 18.662944 Z M 13.648779,16.66875 8.2020834,21.959383 V 23.8125 H 21.003886 Z"
         sodipodi:nodetypes="scccccsccccccccccccc" /><path
         id="path4"
         style="opacity:1;fill:#ffffff;fill-opacity:1;stroke:none;stroke-width:1.32292;stroke-linecap:square;stroke-miterlimit:3;stroke-dasharray:none;stroke-opacity:1;paint-order:markers stroke fill"
         inkscape:label="Background"
         d="M 5.027084,2.6458335 V 31.750002 a 2.1166651,2.1166651 45 0 0 2.1166651,2.116665 H 26.987503 a 2.1166651,2.1166651 135 0 0 2.116665,-2.116665 V 7.6145834 A 2.4142134,2.4142134 67.499999 0 0 28.397061,5.9074767 L 23.196691,0.70710675 A 2.4142137,2.4142137 22.499999 0 0 21.489584,0 H 7.6729175 A 2.6458335,2.6458335 135 0 0 5.027084,2.6458335 Z M 8.5989605,11.641666 H 25.532291 a 0.52916806,0.52916806 45 0 1 0.529168,0.529168 v 11.377084 a 0.52916592,0.52916592 135 0 1 -0.529166,0.529166 H 8.5989583 A 0.52916592,0.52916592 45 0 1 8.0697924,23.547918 V 12.170834 a 0.52916806,0.52916806 135 0 1 0.5291681,-0.529168 z"
         transform="translate(-0.1322923)"
         sodipodi:nodetypes="ccccccccccc"
         inkscape:path-effect="#path-effect24"
         inkscape:original-d="M 5.027084,0 V 33.866667 H 29.104168 V 6.6145834 L 22.489584,0 Z M 8.0697924,11.641666 H 26.061459 V 24.077084 H 8.0697924 Z" /></g><path
       id="path24"
       style="display:none;opacity:1;fill:#ffffff;fill-opacity:1;stroke:none;stroke-width:1.32292;stroke-linecap:square;stroke-miterlimit:3;stroke-dasharray:none;stroke-opacity:1;paint-order:markers stroke fill"
       inkscape:label="FileModel"
       d="M 7.026962,0 C 5.9224878,6.7370867e-5 5.0271514,0.89540373 5.027084,1.9998779 V 31.866789 c 6.74e-5,1.104474 0.8954038,1.999811 1.999878,1.999878 H 27.10429 c 1.104474,-6.7e-5 1.999811,-0.895404 1.999878,-1.999878 V 7.6145224 C 29.104152,6.9743391 28.849866,6.3603736 28.397234,5.9076498 L 23.196518,0.7069336 C 22.743794,0.2543015 22.129828,1.6047173e-5 21.489645,0 Z m 10.038664,11.973946 7.72821,1.731677 -1.14825,9.187553 -6.579443,4.291211 -6.580477,-4.291211 -1.1482507,-9.187553 z m 0,1.124479 -5.163509,1.120862 5.164026,1.720825 5.20795,-1.720825 z m -6.514331,1.786454 0.922941,7.388697 5.061706,3.301607 v -8.696627 z m 13.028145,0 -5.984648,1.994194 v 8.69611 l 5.060674,-3.301607 z"
       transform="translate(-0.1322923)"
       sodipodi:nodetypes="ccccccccccccccccccccccccccccccccc" /><path
       id="path10"
       style="display:none;fill:#ffffff;fill-opacity:1;stroke:none;stroke-width:0.529167;stroke-linecap:butt;stroke-linejoin:miter;stroke-miterlimit:3;stroke-dasharray:none;stroke-opacity:1;paint-order:markers stroke fill"
       d="M 16.933333,0 C 7.5813117,5.5228468e-7 5.5228468e-7,7.5813117 0,16.933333 c 0,9.352022 7.5813113,16.933333 16.933333,16.933334 9.352022,0 16.933334,-7.581312 16.933334,-16.933334 C 33.866666,7.5813113 26.285355,0 16.933333,0 Z m -5.034745,4.6302087 c 4.018447,-5e-7 7.276042,3.2575948 7.276042,7.2760423 0,4.018447 -3.257595,7.276042 -7.276042,7.276042 -4.0184472,0 -7.2760421,-3.257595 -7.2760416,-7.276042 -5e-7,-4.0184473 3.2575944,-7.2760425 7.2760416,-7.2760423 z"
       sodipodi:nodetypes="ssssssssss"
       inkscape:label="FileMaterial" /><path
       id="rect1-2"
       style="display:none;fill:#ffffff;fill-opacity:1;stroke:none;stroke-width:1.32292;stroke-linecap:square;stroke-miterlimit:3;stroke-dasharray:none;stroke-opacity:1;paint-order:markers stroke fill"
       inkscape:label="FileShader"
       d="M 6.8946697,0 A 2,2 0 0 0 4.8947918,1.9998779 V 31.866789 a 2,2 0 0 0 1.9998779,1.999878 H 26.971997 a 2,2 0 0 0 1.999878,-1.999878 V 7.6145224 A 2.4142137,2.4142137 0 0 0 28.264942,5.9076498 L 23.064226,0.7069336 A 2.4142134,2.4142134 0 0 0 21.357352,0 Z M 16.944186,10.473263 c 1.050983,0 1.981045,0.15434 2.789494,0.46302 0.808449,0.308681 1.587155,0.81178 2.336808,1.509986 l -1.543058,1.565796 c -0.64676,-0.529167 -1.253097,-0.911515 -1.819011,-1.1467 -0.558565,-0.242535 -1.142852,-0.363802 -1.752864,-0.363802 -0.757002,0 -1.34531,0.18391 -1.764234,0.551387 -0.411574,0.360127 -0.617016,0.896299 -0.617016,1.609204 0,0.507118 0.135794,0.922539 0.407727,1.245919 0.271932,0.31603 0.67231,0.599159 1.201477,0.849044 l 2.2934,1.080037 c 1.161227,0.543866 2.043171,1.157725 2.645833,1.841232 0.602662,0.683506 0.903821,1.561948 0.903821,2.634981 0,1.418461 -0.463021,2.483799 -1.389062,3.196704 -0.918693,0.705555 -2.315277,1.058333 -4.189409,1.058333 -0.889294,0 -1.723122,-0.07315 -2.502173,-0.220141 -0.771701,-0.139641 -1.488281,-0.353122 -2.149739,-0.639754 l 0.286287,-2.226738 c 0.808449,0.345428 1.587673,0.610012 2.337325,0.79375 0.757003,0.176389 1.492128,0.264583 2.205033,0.264583 1.028935,0 1.793115,-0.179891 2.292884,-0.540018 0.499768,-0.360127 0.749825,-0.90784 0.749825,-1.642794 0,-0.933391 -0.478065,-1.616898 -1.433504,-2.050521 l -2.71198,-1.23455 c -1.065683,-0.485069 -1.884983,-1.069357 -2.458247,-1.752865 -0.565915,-0.683506 -0.849044,-1.532378 -0.849044,-2.546614 0,-1.367014 0.411918,-2.425348 1.235066,-3.175 0.823148,-0.749653 1.987706,-1.124479 3.494361,-1.124479 z" /><path
       id="path8"
       style="display:inline;fill:#ffffff;fill-opacity:1;stroke:none;stroke-width:1.32292;stroke-linecap:square;stroke-miterlimit:3;stroke-dasharray:none;stroke-opacity:1;paint-order:markers stroke fill"
       inkscape:label="FileShaderVariant"
       d="M 6.8946697 0 A 2 2 0 0 0 4.8947917 1.9998779 L 4.8947917 31.866789 A 2 2 0 0 0 6.8946697 33.866667 L 26.971997 33.866667 A 2 2 0 0 0 27.387476 33.783985 C 27.25448 33.5093 27.197425 33.139627 27.072766 32.8967 C 26.660234 32.391503 26.229831 33.013605 25.90798 33.324064 C 25.525724 33.897283 24.933954 33.342912 24.517884 33.126144 C 23.838355 32.82023 24.427891 32.035165 24.451221 31.515389 C 24.216647 30.958373 23.692759 31.241243 23.252328 31.323153 C 22.656657 31.590963 22.420835 30.920033 22.218282 30.492713 C 21.706252 29.840275 22.654937 29.42833 22.996013 28.984278 C 23.066976 28.27019 22.167331 28.341924 21.706686 28.070122 C 21.496812 27.788679 21.675709 27.261837 21.691699 26.88053 C 21.676198 26.106964 22.640063 26.272955 23.152592 26.093498 C 23.582976 25.709624 22.9776 25.327204 22.78724 24.980388 C 22.313649 24.519337 22.928237 24.046375 23.21202 23.680209 C 23.605931 22.955392 24.358587 23.677422 24.908041 23.783045 C 25.549837 23.482891 24.706023 22.463703 25.331787 22.105628 C 25.825646 22.000317 26.434206 21.483447 26.876913 21.873084 C 27.212185 22.123422 27.297741 22.852637 27.779183 22.808427 C 28.126665 22.487172 28.163879 21.721991 28.683521 21.617285 C 28.780173 21.625012 28.876157 21.639498 28.971875 21.657076 L 28.971875 7.6145224 A 2.4142137 2.4142137 0 0 0 28.264942 5.9076498 L 23.064225 0.7069336 A 2.4142134 2.4142134 0 0 0 21.357353 0 L 6.8946697 0 z M 16.944186 10.473263 C 17.995165 10.473263 18.925232 10.627605 19.733679 10.936283 C 20.542128 11.244964 21.320835 11.748065 22.070488 12.446269 L 20.527429 14.012065 C 19.880671 13.482898 19.274331 13.100548 18.708419 12.865365 C 18.149856 12.62283 17.565566 12.501563 16.955554 12.501563 C 16.198554 12.501563 15.610245 12.685475 15.191321 13.05295 C 14.779747 13.413077 14.574304 13.949251 14.574304 14.662154 C 14.574304 15.169272 14.7101 15.584693 14.982031 15.908073 C 15.253963 16.224103 15.654343 16.507232 16.183508 16.757117 L 18.476909 17.837154 C 19.638132 18.38102 20.520082 18.994879 21.122742 19.678386 C 21.725402 20.36189 22.026563 21.240336 22.026563 22.313367 C 22.026563 23.731826 21.563539 24.797168 20.6375 25.510071 C 19.718809 26.215624 18.32222 26.568404 16.448092 26.568404 C 15.5588 26.568404 14.724968 26.495254 13.945919 26.348263 C 13.17422 26.208622 12.457637 25.995139 11.796179 25.708509 L 12.082467 23.481771 C 12.890914 23.827199 13.670142 24.091783 14.419792 24.275521 C 15.176793 24.45191 15.911922 24.540104 16.624825 24.540104 C 17.653758 24.540104 18.41794 24.360211 18.917709 24.000086 C 19.417475 23.639959 19.667534 23.092244 19.667534 22.357292 C 19.667534 21.423903 19.189466 20.740394 18.234029 20.306771 L 15.52205 19.072221 C 14.456369 18.587154 13.637066 18.002864 13.063802 17.319356 C 12.497889 16.635852 12.214758 15.786976 12.214758 14.772742 C 12.214758 13.40573 12.626679 12.347392 13.449825 11.597742 C 14.272971 10.848091 15.437533 10.473263 16.944186 10.473263 z M 28.676803 21.880318 C 28.610886 21.885295 28.580315 21.945235 28.261324 22.534025 C 28.057436 22.910363 27.983171 23.037903 27.960051 23.050273 C 27.93045 23.066113 27.705257 23.082912 27.572477 23.079212 C 27.467746 23.076282 27.446252 23.072677 27.421582 23.054407 C 27.380716 23.024153 27.257881 22.86003 26.993185 22.480799 C 26.676887 22.027634 26.638851 21.981715 26.567371 21.970235 C 26.533196 21.964746 26.337406 22.026953 25.752434 22.229134 C 25.448737 22.3341 25.399262 22.35611 25.375712 22.39915 C 25.350032 22.446088 25.353967 22.57039 25.398967 23.149492 C 25.442967 23.715583 25.442823 23.718158 25.377263 23.780978 C 25.287888 23.866614 25.004184 24.054095 24.944214 24.067265 C 24.907909 24.075239 24.758291 24.021318 24.300326 23.835238 C 23.694964 23.589269 23.666045 23.580658 23.610445 23.624398 C 23.536636 23.682456 22.998281 24.340081 22.901961 24.489978 C 22.828804 24.603834 22.821353 24.588213 23.237342 25.141101 C 23.40341 25.361823 23.552941 25.569662 23.569621 25.602572 C 23.618911 25.699854 23.613212 25.760947 23.539132 25.938469 C 23.451512 26.148413 23.385915 26.283195 23.361365 26.304855 C 23.332501 26.330319 23.255619 26.347373 22.68492 26.454716 C 22.05561 26.573086 22.042015 26.577247 22.003825 26.651087 C 21.963081 26.729873 21.877218 27.470995 21.877218 27.743526 L 21.877218 27.852564 L 22.232235 27.983305 C 23.170124 28.328963 23.118878 28.307105 23.148458 28.369845 C 23.179998 28.436737 23.267258 28.918255 23.267314 29.025102 C 23.267353 29.098515 23.233032 29.137421 22.844084 29.505693 C 22.306189 30.014999 22.301133 30.020963 22.326803 30.107723 C 22.352054 30.193053 22.705276 30.877767 22.803776 31.032215 C 22.872135 31.139409 22.853357 31.140299 23.431128 31.013094 C 24.137582 30.857558 24.169697 30.8531 24.234697 30.90044 C 24.323411 30.965053 24.685518 31.355038 24.716838 31.419788 C 24.738558 31.464689 24.724919 31.532997 24.575761 32.139124 C 24.508652 32.411835 24.451204 32.653896 24.447604 32.677076 C 24.436795 32.747354 24.461825 32.783788 24.564392 32.847608 C 24.911764 33.063748 25.375563 33.316692 25.450643 33.330782 C 25.514471 33.342756 25.548898 33.313632 25.99738 32.868795 C 26.496028 32.374202 26.45487 32.403299 26.612846 32.430579 C 26.755587 32.455225 27.054751 32.525939 27.14718 32.556669 L 27.229346 32.583541 L 27.260869 32.645036 C 27.293508 32.707695 27.333157 32.816219 27.505815 33.31993 C 27.671177 33.802345 27.686685 33.836822 27.751795 33.856332 C 27.821093 33.877102 28.151571 33.866293 28.548129 33.830493 C 28.937232 33.795363 28.931136 33.800295 29.008566 33.446021 C 29.033561 33.33166 29.080062 33.120699 29.111402 32.977316 C 29.176943 32.67743 29.224932 32.48071 29.239042 32.45435 C 29.268014 32.400214 29.802962 32.189767 29.91187 32.189767 C 29.967215 32.189767 30.037164 32.238439 30.417782 32.542717 C 30.787719 32.838455 30.879996 32.908239 30.949016 32.943209 C 31.037162 32.987877 31.04713 32.983409 31.327287 32.771643 C 31.876282 32.356667 31.980079 32.270042 31.989779 32.219222 C 31.998174 32.175309 31.974581 32.103427 31.793925 31.62236 C 31.541246 30.949498 31.542232 30.953708 31.582052 30.875118 C 31.637787 30.765131 31.890973 30.43608 31.939653 30.41003 C 31.97215 30.39264 32.171614 30.403697 32.565971 30.445687 C 33.324792 30.526479 33.293946 30.530867 33.366956 30.344918 C 33.498795 30.009155 33.715772 29.376006 33.715772 29.327926 C 33.715772 29.261701 33.691632 29.240896 33.136996 28.824081 C 32.763962 28.54374 32.667824 28.464972 32.651754 28.426172 C 32.636594 28.389575 32.644883 28.036247 32.663123 27.939897 C 32.68287 27.835566 32.667257 27.845529 33.335433 27.503231 C 33.809563 27.260334 33.850886 27.235488 33.863566 27.185938 C 33.874676 27.142522 33.858193 27.043513 33.776233 26.659355 C 33.672367 26.172524 33.615283 25.956884 33.582963 25.929684 C 33.544857 25.897624 33.494519 25.892285 32.801099 25.846485 C 32.28828 25.812615 32.260294 25.808688 32.209404 25.761219 C 32.128534 25.685779 31.997996 25.437536 31.990296 25.344706 C 31.984445 25.274159 32.011823 25.218797 32.273483 24.774715 C 32.530943 24.337762 32.611971 24.187116 32.611963 24.143746 C 32.611953 24.117636 32.600035 24.093832 32.567005 24.051762 C 32.463521 23.919943 31.851061 23.303135 31.741732 23.220805 C 31.671251 23.167731 31.660507 23.17252 31.052885 23.505542 C 30.623817 23.7407 30.529665 23.78596 30.471525 23.786145 C 30.374255 23.786455 30.061983 23.605621 30.034343 23.532931 C 30.019133 23.49292 30.006729 23.328842 29.995069 23.014616 C 29.968079 22.287331 29.961958 22.222949 29.920138 22.183659 C 29.868663 22.1353 28.857036 21.882018 28.708325 21.880318 C 28.69651 21.880183 28.68622 21.879607 28.676803 21.880318 z " /></g></svg>
