<?xml version="1.0" encoding="UTF-8" standalone="no"?>
<!-- Created with Inkscape (http://www.inkscape.org/) -->

<svg
   width="128"
   height="128"
   viewBox="0 0 33.866667 33.866667"
   version="1.1"
   id="svg1"
   inkscape:version="1.4.2 (f4327f4, 2025-05-13)"
   sodipodi:docname="Icons.svg"
   xml:space="preserve"
   inkscape:export-filename="FileJSON.png"
   inkscape:export-xdpi="96"
   inkscape:export-ydpi="96"
   xmlns:inkscape="http://www.inkscape.org/namespaces/inkscape"
   xmlns:sodipodi="http://sodipodi.sourceforge.net/DTD/sodipodi-0.dtd"
   xmlns="http://www.w3.org/2000/svg"
   xmlns:svg="http://www.w3.org/2000/svg"><sodipodi:namedview
     id="namedview1"
     pagecolor="#505050"
     bordercolor="#ffffff"
     borderopacity="1"
     inkscape:showpageshadow="false"
     inkscape:pageopacity="0"
     inkscape:pagecheckerboard="1"
     inkscape:deskcolor="#505050"
     inkscape:document-units="px"
     labelstyle="default"
     inkscape:clip-to-page="false"
     shape-rendering="auto"
     showgrid="true"
     inkscape:zoom="5.6568543"
     inkscape:cx="53.828503"
     inkscape:cy="55.773047"
     inkscape:window-width="2560"
     inkscape:window-height="1377"
     inkscape:window-x="2552"
     inkscape:window-y="-8"
     inkscape:window-maximized="1"
     inkscape:current-layer="layer1"
     showguides="false"><inkscape:grid
       id="grid1"
       units="px"
       originx="0"
       originy="0"
       spacingx="0.26458334"
       spacingy="0.26458334"
       empcolor="#0099e5"
       empopacity="0.30196078"
       color="#0099e5"
       opacity="0.14902"
       empspacing="5"
       dotted="false"
       gridanglex="30"
       gridanglez="30"
       visible="true" /></sodipodi:namedview><defs
     id="defs1"><inkscape:path-effect
       effect="fillet_chamfer"
       id="path-effect10"
       is_visible="true"
       lpeversion="1"
       nodesatellites_param="F,0,0,1,0,2,0,1 @ F,0,0,1,0,1,0,1 @ F,0,0,1,0,1,0,1 @ F,0,0,1,0,2,0,1 @ F,0,0,1,0,2,0,1"
       radius="1"
       unit="px"
       method="auto"
       mode="F"
       chamfer_steps="1"
       flexible="false"
       use_knot_distance="true"
       apply_no_radius="true"
       apply_with_radius="true"
       only_selected="false"
       hide_knots="false" /><inkscape:path-effect
       effect="fillet_chamfer"
       id="path-effect9"
       is_visible="true"
       lpeversion="1"
       nodesatellites_param="F,0,0,1,0,2,0,1 @ F,0,0,1,0,1,0,1 @ F,0,0,1,0,1,0,1 @ F,0,0,1,0,2,0,1 @ F,0,0,1,0,2,0,1"
       radius="1"
       unit="px"
       method="auto"
       mode="F"
       chamfer_steps="1"
       flexible="false"
       use_knot_distance="true"
       apply_no_radius="true"
       apply_with_radius="true"
       only_selected="false"
       hide_knots="false" /><inkscape:path-effect
       effect="copy_rotate"
       starting_point="0,0"
       origin="-10.4,11.91"
       id="path-effect11"
       is_visible="true"
       lpeversion="1.2"
       lpesatellites=""
       method="normal"
       num_copies="11"
       starting_angle="0"
       rotation_angle="32.727273"
       gap="-0.01"
       copies_to_360="true"
       mirror_copies="false"
       split_items="false"
       link_styles="false" /><inkscape:path-effect
       effect="gears"
       id="path-effect8"
       is_visible="true"
       lpeversion="1"
       teeth="8"
       phi="0"
       min_radius="5" /><inkscape:path-effect
       effect="fillet_chamfer"
       id="path-effect7"
       is_visible="true"
       lpeversion="1"
       nodesatellites_param="F,0,0,1,0,2,0,1 @ F,0,0,1,0,1,0,1 @ F,0,0,1,0,1,0,1 @ F,0,0,1,0,2,0,1 @ F,0,0,1,0,2,0,1"
       radius="1"
       unit="px"
       method="auto"
       mode="F"
       chamfer_steps="1"
       flexible="false"
       use_knot_distance="true"
       apply_no_radius="true"
       apply_with_radius="true"
       only_selected="false"
       hide_knots="false" /><inkscape:path-effect
       effect="fillet_chamfer"
       id="path-effect26"
       is_visible="true"
       lpeversion="1"
       nodesatellites_param="F,0,0,1,0,2,0,1 @ F,0,0,1,0,1,0,1 @ F,0,0,1,0,1,0,1 @ F,0,0,1,0,2,0,1 @ F,0,0,1,0,2,0,1"
       radius="1"
       unit="px"
       method="auto"
       mode="F"
       chamfer_steps="1"
       flexible="false"
       use_knot_distance="true"
       apply_no_radius="true"
       apply_with_radius="true"
       only_selected="false"
       hide_knots="false" /><inkscape:path-effect
       effect="fillet_chamfer"
       id="path-effect24"
       is_visible="true"
       lpeversion="1"
       nodesatellites_param="F,0,0,1,0,2.6458335,0,1 @ F,0,0,1,0,2.1166651,0,1 @ F,0,0,1,0,2.1166651,0,1 @ F,0,0,1,0,1,0,1 @ F,0,0,1,0,1,0,1 | F,0,0,1,0,0.52916806,0,1 @ F,0,0,1,0,0.52916806,0,1 @ F,0,0,1,0,0.52916592,0,1 @ F,0,0,1,0,0.52916592,0,1"
       radius="1"
       unit="px"
       method="auto"
       mode="F"
       chamfer_steps="1"
       flexible="false"
       use_knot_distance="true"
       apply_no_radius="true"
       apply_with_radius="true"
       only_selected="false"
       hide_knots="false" /><inkscape:path-effect
       effect="fillet_chamfer"
       id="path-effect23"
       is_visible="true"
       lpeversion="1"
       nodesatellites_param="F,0,0,1,0,0.25,0,1 @ F,0,0,1,0,0.25,0,1 @ F,0,0,1,0,0.25,0,1 @ F,0,0,1,0,0.25,0,1 @ F,0,0,1,0,0.25,0,1 @ F,0,0,1,0,0.25,0,1 | F,0,0,1,0,0.25,0,1 @ F,0,0,1,0,0.25,0,1 @ F,0,0,1,0,0.25,0,1 @ F,0,0,1,0,0.25,0,1 @ F,0,0,1,0,0.25,0,1 | F,0,0,1,0,0.25,0,1 @ F,0,0,1,0,0.25,0,1 @ F,0,0,1,0,0.25,0,1 @ F,0,0,1,0,0.25,0,1"
       radius="0.25"
       unit="px"
       method="auto"
       mode="F"
       chamfer_steps="1"
       flexible="false"
       use_knot_distance="true"
       apply_no_radius="true"
       apply_with_radius="true"
       only_selected="false"
       hide_knots="false" /><inkscape:path-effect
       effect="fillet_chamfer"
       id="path-effect6"
       is_visible="true"
       lpeversion="1"
       nodesatellites_param="F,0,0,1,0,2,0,1 @ F,0,0,1,0,1,0,1 @ F,0,0,1,0,1,0,1 @ F,0,0,1,0,2,0,1 @ F,0,0,1,0,2,0,1"
       radius="1"
       unit="px"
       method="auto"
       mode="F"
       chamfer_steps="1"
       flexible="false"
       use_knot_distance="true"
       apply_no_radius="true"
       apply_with_radius="true"
       only_selected="false"
       hide_knots="false" /><inkscape:path-effect
       effect="roughen"
       id="path-effect4"
       is_visible="true"
       lpeversion="1.2"
       global_randomize="1;-1790144582"
       displace_x="0.160514;-850225642"
       displace_y="10;1"
       method="size"
       max_segment_size="0.481542"
       segments="2"
       handles="along"
       shift_nodes="true"
       fixed_displacement="false"
       spray_tool_friendly="false" /><inkscape:path-effect
       effect="vonkoch"
       id="path-effect3"
       is_visible="true"
       lpeversion="1"
       ref_path="M 5.0270836,16.933334 H 29.104168"
       generator="m 5.0270836,33.866669 h 8.0256944 m 8.025695,0 h 8.025695"
       similar_only="false"
       nbgenerations="4"
       drawall="true"
       maxComplexity="1000" /><inkscape:path-effect
       effect="rough_hatches"
       id="path-effect2"
       is_visible="true"
       lpeversion="1.2"
       direction="17.065626,11.933335 , 6.0192711,0"
       dist_rdm="75;1"
       growth="0"
       do_bend="true"
       bender="17.065626,16.933335 , 5,0"
       bottom_edge_variation="3.3866669;1"
       top_edge_variation="3.3866669;1"
       bottom_tgt_variation="0;1"
       top_tgt_variation="0;1"
       scale_bf="1"
       scale_bb="1"
       scale_tf="1"
       scale_tb="1"
       top_smth_variation="0;1"
       bottom_smth_variation="0;1"
       fat_output="true"
       stroke_width_top="1"
       stroke_width_bottom="1"
       front_thickness="1"
       back_thickness="0.25" /><inkscape:path-effect
       effect="fillet_chamfer"
       id="path-effect1"
       is_visible="true"
       lpeversion="1"
       nodesatellites_param="F,0,0,1,0,2,0,1 @ F,0,0,1,0,1,0,1 @ F,0,0,1,0,1,0,1 @ F,0,0,1,0,2,0,1 @ F,0,0,1,0,2,0,1"
       radius="1"
       unit="px"
       method="auto"
       mode="F"
       chamfer_steps="1"
       flexible="false"
       use_knot_distance="true"
       apply_no_radius="true"
       apply_with_radius="true"
       only_selected="false"
       hide_knots="false" /><inkscape:path-effect
       effect="fillet_chamfer"
       id="path-effect1-1"
       is_visible="true"
       lpeversion="1"
       nodesatellites_param="F,0,0,1,0,2,0,1 @ F,0,0,1,0,1,0,1 @ F,0,0,1,0,1,0,1 @ F,0,0,1,0,2,0,1 @ F,0,0,1,0,2,0,1"
       radius="1"
       unit="px"
       method="auto"
       mode="F"
       chamfer_steps="1"
       flexible="false"
       use_knot_distance="true"
       apply_no_radius="true"
       apply_with_radius="true"
       only_selected="false"
       hide_knots="false" /></defs><g
     inkscape:label="Layer 1"
     inkscape:groupmode="layer"
     id="layer1"
     style="display:inline"><path
       id="rect1"
       style="display:none;opacity:1;fill:#ffffff;fill-opacity:1;stroke:none;stroke-width:1.32292;stroke-linecap:square;stroke-miterlimit:3;stroke-dasharray:none;stroke-opacity:1;paint-order:markers stroke fill"
       d="M 7.0270836,0 H 21.489585 a 2.4142134,2.4142134 22.500002 0 1 1.707107,0.70710682 l 5.200369,5.20037008 a 2.4142137,2.4142137 67.500002 0 1 0.707107,1.7071068 V 31.866669 a 2,2 135 0 1 -2,2 H 7.0270836 a 2,2 45 0 1 -2,-2 V 2 a 2,2 135 0 1 2,-2 z"
       sodipodi:nodetypes="cccccc"
       transform="translate(-0.1322923)"
       inkscape:label="FileUnknown"
       inkscape:original-d="M 5.0270836,0 H 22.489585 l 6.614583,6.6145837 V 33.866669 H 5.0270836 Z"
       inkscape:path-effect="#path-effect1" /><g
       id="g23"
       inkscape:label="FileTexture"
       style="display:none"><path
         id="path7"
         style="opacity:1;fill:#ffffff;fill-opacity:1;stroke:none;stroke-width:1.32292;stroke-linecap:square;stroke-miterlimit:3;stroke-dasharray:none;stroke-opacity:1;paint-order:markers stroke fill"
         d="m 12.847106,12.841582 c -1.627405,0.121514 -2.9266516,1.420724 -3.0482238,3.048113 -0.010288,0.137721 -0.00993,0.362008 9.198e-4,0.49962 0.067561,0.857093 0.466734,1.654808 1.112229,2.222708 0.103637,0.09118 0.273849,0.07971 0.372769,-0.01662 0.727317,-0.708239 1.458938,-1.41208 2.184834,-2.121776 0.09872,-0.09652 0.25889,-0.09687 0.357913,-6.51e-4 0.546278,0.530802 1.09291,1.061236 1.639228,1.591999 0.09903,0.09621 0.251486,0.08842 0.331147,-0.02431 0.343864,-0.486624 0.549912,-1.057295 0.59624,-1.651349 0.01073,-0.13762 0.01099,-0.361852 7.15e-4,-0.499508 -0.121515,-1.627406 -1.420725,-2.926652 -3.048114,-3.048223 -0.137721,-0.01029 -0.362001,-0.01029 -0.499657,-9e-6 z m 9.435354,2.296314 -4.328099,4.994923 c -0.09042,0.104348 -0.08343,0.266925 0.01561,0.363132 1.078364,1.04758 2.156273,2.095616 3.235329,3.14248 0.0991,0.09614 0.291373,0.174069 0.429444,0.174069 h 3.779843 a 0.25,0.25 135 0 0 0.25,-0.25 V 18.912944 A 0.67024103,0.67024103 69.544477 0 0 25.500862,18.474012 L 22.609897,15.13789 a 0.21663305,0.21663305 179.99894 0 0 -0.327437,6e-6 z m -8.813008,1.705043 -5.0880415,4.942255 A 0.59136189,0.59136189 112.91636 0 0 8.2020834,22.209383 V 23.5625 a 0.25,0.25 45 0 0 0.25,0.25 H 20.753886 a 0.1014251,0.1014251 112.08242 0 0 0.07066,-0.174181 l -6.996437,-6.795388 a 0.25738552,0.25738552 179.99877 0 0 -0.358662,8e-6 z"
         inkscape:label="Shapes"
         inkscape:path-effect="#path-effect23"
         inkscape:original-d="m 13.096875,12.832292 c -1.826566,0 -3.307291,1.480725 -3.3072916,3.307291 0.00327,1.034359 0.4902836,2.007617 1.3161986,2.630331 0.84582,-0.825432 1.698587,-1.643762 2.542481,-2.471167 0.665705,0.647056 1.332046,1.293452 1.997811,1.94045 0.488391,-0.590864 0.756361,-1.333035 0.758093,-2.099614 -1e-6,-1.826567 -1.480725,-3.307291 -3.307292,-3.307291 z m 9.3493,2.116666 -4.655529,5.372799 c 1.197971,1.16365 2.39527,2.327976 3.594095,3.490743 h 4.279843 V 18.662944 Z M 13.648779,16.66875 8.2020834,21.959383 V 23.8125 H 21.003886 Z"
         sodipodi:nodetypes="scccccsccccccccccccc" /><path
         id="path4"
         style="opacity:1;fill:#ffffff;fill-opacity:1;stroke:none;stroke-width:1.32292;stroke-linecap:square;stroke-miterlimit:3;stroke-dasharray:none;stroke-opacity:1;paint-order:markers stroke fill"
         inkscape:label="Background"
         d="M 5.027084,2.6458335 V 31.750002 a 2.1166651,2.1166651 45 0 0 2.1166651,2.116665 H 26.987503 a 2.1166651,2.1166651 135 0 0 2.116665,-2.116665 V 7.6145834 A 2.4142134,2.4142134 67.499999 0 0 28.397061,5.9074767 L 23.196691,0.70710675 A 2.4142137,2.4142137 22.499999 0 0 21.489584,0 H 7.6729175 A 2.6458335,2.6458335 135 0 0 5.027084,2.6458335 Z M 8.5989605,11.641666 H 25.532291 a 0.52916806,0.52916806 45 0 1 0.529168,0.529168 v 11.377084 a 0.52916592,0.52916592 135 0 1 -0.529166,0.529166 H 8.5989583 A 0.52916592,0.52916592 45 0 1 8.0697924,23.547918 V 12.170834 a 0.52916806,0.52916806 135 0 1 0.5291681,-0.529168 z"
         transform="translate(-0.1322923)"
         sodipodi:nodetypes="ccccccccccc"
         inkscape:path-effect="#path-effect24"
         inkscape:original-d="M 5.027084,0 V 33.866667 H 29.104168 V 6.6145834 L 22.489584,0 Z M 8.0697924,11.641666 H 26.061459 V 24.077084 H 8.0697924 Z" /></g><path
       id="path24"
       style="display:none;opacity:1;fill:#ffffff;fill-opacity:1;stroke:none;stroke-width:1.32292;stroke-linecap:square;stroke-miterlimit:3;stroke-dasharray:none;stroke-opacity:1;paint-order:markers stroke fill"
       inkscape:label="FileModel"
       d="M 7.026962,0 C 5.9224878,6.7370867e-5 5.0271514,0.89540373 5.027084,1.9998779 V 31.866789 c 6.74e-5,1.104474 0.8954038,1.999811 1.999878,1.999878 H 27.10429 c 1.104474,-6.7e-5 1.999811,-0.895404 1.999878,-1.999878 V 7.6145224 C 29.104152,6.9743391 28.849866,6.3603736 28.397234,5.9076498 L 23.196518,0.7069336 C 22.743794,0.2543015 22.129828,1.6047173e-5 21.489645,0 Z m 10.038664,11.973946 7.72821,1.731677 -1.14825,9.187553 -6.579443,4.291211 -6.580477,-4.291211 -1.1482507,-9.187553 z m 0,1.124479 -5.163509,1.120862 5.164026,1.720825 5.20795,-1.720825 z m -6.514331,1.786454 0.922941,7.388697 5.061706,3.301607 v -8.696627 z m 13.028145,0 -5.984648,1.994194 v 8.69611 l 5.060674,-3.301607 z"
       transform="translate(-0.1322923)"
       sodipodi:nodetypes="ccccccccccccccccccccccccccccccccc" /><path
       id="path10"
       style="display:none;fill:#ffffff;fill-opacity:1;stroke:none;stroke-width:0.529167;stroke-linecap:butt;stroke-linejoin:miter;stroke-miterlimit:3;stroke-dasharray:none;stroke-opacity:1;paint-order:markers stroke fill"
       d="M 16.933333,0 C 7.5813117,5.5228468e-7 5.5228468e-7,7.5813117 0,16.933333 c 0,9.352022 7.5813113,16.933333 16.933333,16.933334 9.352022,0 16.933334,-7.581312 16.933334,-16.933334 C 33.866666,7.5813113 26.285355,0 16.933333,0 Z m -5.034745,4.6302087 c 4.018447,-5e-7 7.276042,3.2575948 7.276042,7.2760423 0,4.018447 -3.257595,7.276042 -7.276042,7.276042 -4.0184472,0 -7.2760421,-3.257595 -7.2760416,-7.276042 -5e-7,-4.0184473 3.2575944,-7.2760425 7.2760416,-7.2760423 z"
       sodipodi:nodetypes="ssssssssss"
       inkscape:label="FileMaterial" /><path
       id="rect1-2"
       style="display:none;fill:#ffffff;fill-opacity:1;stroke:none;stroke-width:1.32292;stroke-linecap:square;stroke-miterlimit:3;stroke-dasharray:none;stroke-opacity:1;paint-order:markers stroke fill"
       inkscape:label="FileShader"
       d="M 6.8946697,0 A 2,2 0 0 0 4.8947918,1.9998779 V 31.866789 a 2,2 0 0 0 1.9998779,1.999878 H 26.971997 a 2,2 0 0 0 1.999878,-1.999878 V 7.6145224 A 2.4142137,2.4142137 0 0 0 28.264942,5.9076498 L 23.064226,0.7069336 A 2.4142134,2.4142134 0 0 0 21.357352,0 Z M 16.944186,10.473263 c 1.050983,0 1.981045,0.15434 2.789494,0.46302 0.808449,0.308681 1.587155,0.81178 2.336808,1.509986 l -1.543058,1.565796 c -0.64676,-0.529167 -1.253097,-0.911515 -1.819011,-1.1467 -0.558565,-0.242535 -1.142852,-0.363802 -1.752864,-0.363802 -0.757002,0 -1.34531,0.18391 -1.764234,0.551387 -0.411574,0.360127 -0.617016,0.896299 -0.617016,1.609204 0,0.507118 0.135794,0.922539 0.407727,1.245919 0.271932,0.31603 0.67231,0.599159 1.201477,0.849044 l 2.2934,1.080037 c 1.161227,0.543866 2.043171,1.157725 2.645833,1.841232 0.602662,0.683506 0.903821,1.561948 0.903821,2.634981 0,1.418461 -0.463021,2.483799 -1.389062,3.196704 -0.918693,0.705555 -2.315277,1.058333 -4.189409,1.058333 -0.889294,0 -1.723122,-0.07315 -2.502173,-0.220141 -0.771701,-0.139641 -1.488281,-0.353122 -2.149739,-0.639754 l 0.286287,-2.226738 c 0.808449,0.345428 1.587673,0.610012 2.337325,0.79375 0.757003,0.176389 1.492128,0.264583 2.205033,0.264583 1.028935,0 1.793115,-0.179891 2.292884,-0.540018 0.499768,-0.360127 0.749825,-0.90784 0.749825,-1.642794 0,-0.933391 -0.478065,-1.616898 -1.433504,-2.050521 l -2.71198,-1.23455 c -1.065683,-0.485069 -1.884983,-1.069357 -2.458247,-1.752865 -0.565915,-0.683506 -0.849044,-1.532378 -0.849044,-2.546614 0,-1.367014 0.411918,-2.425348 1.235066,-3.175 0.823148,-0.749653 1.987706,-1.124479 3.494361,-1.124479 z" /><path
       id="path8"
       style="display:none;fill:#ffffff;fill-opacity:1;stroke:none;stroke-width:1.32292;stroke-linecap:square;stroke-miterlimit:3;stroke-dasharray:none;stroke-opacity:1;paint-order:markers stroke fill"
       inkscape:label="FileShaderVariant"
       d="M 6.8946697,0 A 2,2 0 0 0 4.8947917,1.9998779 V 31.866789 a 2,2 0 0 0 1.999878,1.999878 H 26.971997 a 2,2 0 0 0 0.415479,-0.08268 C 27.25448,33.5093 27.197425,33.139627 27.072766,32.8967 c -0.412532,-0.505197 -0.842935,0.116905 -1.164786,0.427364 -0.382256,0.573219 -0.974026,0.01885 -1.390096,-0.19792 -0.679529,-0.305914 -0.08999,-1.090979 -0.06666,-1.610755 -0.234574,-0.557016 -0.758462,-0.274146 -1.198893,-0.192236 -0.595671,0.26781 -0.831493,-0.40312 -1.034046,-0.83044 -0.51203,-0.652438 0.436655,-1.064383 0.777731,-1.508435 0.07096,-0.714088 -0.828682,-0.642354 -1.289327,-0.914156 -0.209874,-0.281443 -0.03098,-0.808285 -0.01499,-1.189592 -0.0155,-0.773566 0.948364,-0.607575 1.460893,-0.787032 0.430384,-0.383874 -0.174992,-0.766294 -0.365352,-1.11311 -0.473591,-0.461051 0.140997,-0.934013 0.42478,-1.300179 0.393911,-0.724817 1.146567,-0.0028 1.696021,0.102836 0.641796,-0.300154 -0.202018,-1.319342 0.423746,-1.677417 0.493859,-0.105311 1.102419,-0.622181 1.545126,-0.232544 0.335272,0.250338 0.420828,0.979553 0.90227,0.935343 0.347482,-0.321255 0.384696,-1.086436 0.904338,-1.191142 0.09665,0.0077 0.192636,0.02221 0.288354,0.03979 V 7.6145224 A 2.4142137,2.4142137 0 0 0 28.264942,5.9076498 L 23.064225,0.7069336 A 2.4142134,2.4142134 0 0 0 21.357353,0 Z M 16.944186,10.473263 c 1.050979,0 1.981046,0.154342 2.789493,0.46302 0.808449,0.308681 1.587156,0.811782 2.336809,1.509986 l -1.543059,1.565796 c -0.646758,-0.529167 -1.253098,-0.911517 -1.81901,-1.1467 -0.558563,-0.242535 -1.142853,-0.363802 -1.752865,-0.363802 -0.757,0 -1.345309,0.183912 -1.764233,0.551387 -0.411574,0.360127 -0.617017,0.896301 -0.617017,1.609204 0,0.507118 0.135796,0.922539 0.407727,1.245919 0.271932,0.31603 0.672312,0.599159 1.201477,0.849044 l 2.293401,1.080037 c 1.161223,0.543866 2.043173,1.157725 2.645833,1.841232 0.60266,0.683504 0.903821,1.56195 0.903821,2.634981 0,1.418459 -0.463024,2.483801 -1.389063,3.196704 -0.918691,0.705553 -2.31528,1.058333 -4.189408,1.058333 -0.889292,0 -1.723124,-0.07315 -2.502173,-0.220141 -0.771699,-0.139641 -1.488282,-0.353124 -2.14974,-0.639754 l 0.286288,-2.226738 c 0.808447,0.345428 1.587675,0.610012 2.337325,0.79375 0.757001,0.176389 1.49213,0.264583 2.205033,0.264583 1.028933,0 1.793115,-0.179893 2.292884,-0.540018 0.499766,-0.360127 0.749825,-0.907842 0.749825,-1.642794 0,-0.933389 -0.478068,-1.616898 -1.433505,-2.050521 l -2.711979,-1.23455 c -1.065681,-0.485067 -1.884984,-1.069357 -2.458248,-1.752865 -0.565913,-0.683504 -0.849044,-1.53238 -0.849044,-2.546614 0,-1.367012 0.411921,-2.42535 1.235067,-3.175 0.823146,-0.749651 1.987708,-1.124479 3.494361,-1.124479 z m 11.732617,11.407055 c -0.06592,0.005 -0.09649,0.06492 -0.415479,0.653707 -0.203888,0.376338 -0.278153,0.503878 -0.301273,0.516248 -0.0296,0.01584 -0.254794,0.03264 -0.387574,0.02894 -0.104731,-0.0029 -0.126225,-0.0065 -0.150895,-0.0248 -0.04087,-0.03025 -0.163701,-0.194377 -0.428397,-0.573608 -0.316298,-0.453165 -0.354334,-0.499084 -0.425814,-0.510564 -0.03418,-0.0055 -0.229965,0.05672 -0.814937,0.258899 -0.303697,0.104966 -0.353172,0.126976 -0.376722,0.170016 -0.02568,0.04694 -0.02174,0.17124 0.02325,0.750342 0.044,0.566091 0.04386,0.568666 -0.0217,0.631486 -0.08938,0.08564 -0.373079,0.273117 -0.433049,0.286287 -0.0363,0.008 -0.185923,-0.04595 -0.643888,-0.232027 -0.605362,-0.245969 -0.634281,-0.25458 -0.689881,-0.21084 -0.07381,0.05806 -0.612164,0.715683 -0.708484,0.86558 -0.07316,0.113856 -0.08061,0.09823 0.335381,0.651123 0.166068,0.220722 0.315599,0.428561 0.332279,0.461471 0.04929,0.09728 0.04359,0.158375 -0.03049,0.335897 -0.08762,0.209944 -0.153217,0.344726 -0.177767,0.366386 -0.02886,0.02546 -0.105746,0.04252 -0.676445,0.149861 -0.62931,0.11837 -0.642905,0.122531 -0.681095,0.196371 -0.04074,0.07879 -0.126607,0.819908 -0.126607,1.092439 v 0.109038 l 0.355017,0.130741 c 0.937889,0.345658 0.886643,0.3238 0.916223,0.38654 0.03154,0.06689 0.1188,0.54841 0.118856,0.655257 3.9e-5,0.07341 -0.03428,0.112319 -0.42323,0.480591 -0.537895,0.509306 -0.542951,0.51527 -0.517281,0.60203 0.02525,0.08533 0.378473,0.770044 0.476973,0.924492 0.06836,0.107194 0.04958,0.108084 0.627352,-0.01912 0.706454,-0.155536 0.738569,-0.159994 0.803569,-0.112654 0.08871,0.06461 0.450821,0.454598 0.482141,0.519348 0.02172,0.0449 0.0081,0.113209 -0.141077,0.719336 -0.06711,0.272711 -0.124557,0.514772 -0.128157,0.537952 -0.01081,0.07028 0.01422,0.106712 0.116788,0.170532 0.347372,0.21614 0.811171,0.469084 0.886251,0.483174 0.06383,0.01197 0.09826,-0.01715 0.546737,-0.461987 0.498648,-0.494593 0.45749,-0.465496 0.615466,-0.438216 0.142741,0.02465 0.441905,0.09536 0.534334,0.12609 l 0.08217,0.02687 0.03152,0.0615 c 0.03264,0.06266 0.07229,0.171183 0.244946,0.674894 0.165362,0.482415 0.18087,0.516892 0.24598,0.536402 0.0693,0.02077 0.399776,0.01 0.796334,-0.02584 0.389103,-0.03513 0.383007,-0.0302 0.460437,-0.384472 0.025,-0.114361 0.0715,-0.325322 0.102836,-0.468705 0.06554,-0.299886 0.11353,-0.496606 0.12764,-0.522966 0.02897,-0.05414 0.56392,-0.264583 0.672828,-0.264583 0.05534,0 0.125294,0.04867 0.505912,0.35295 0.369937,0.295738 0.462214,0.365522 0.531234,0.400492 0.08815,0.04467 0.09811,0.0402 0.378271,-0.171566 0.548995,-0.414976 0.652792,-0.501601 0.662492,-0.552421 0.0084,-0.04391 -0.0152,-0.115795 -0.195854,-0.596862 -0.252679,-0.672862 -0.251693,-0.668652 -0.211873,-0.747242 0.05573,-0.109987 0.308921,-0.439038 0.357601,-0.465088 0.0325,-0.01739 0.231961,-0.0063 0.626318,0.03566 0.758821,0.08079 0.727975,0.08518 0.800985,-0.100769 0.131839,-0.335763 0.348816,-0.968912 0.348816,-1.016992 0,-0.06623 -0.02414,-0.08703 -0.578776,-0.503845 -0.373034,-0.280341 -0.469172,-0.359109 -0.485242,-0.397909 -0.01516,-0.0366 -0.0069,-0.389925 0.01137,-0.486275 0.01975,-0.104331 0.0041,-0.09437 0.67231,-0.436666 0.47413,-0.242897 0.515453,-0.267743 0.528133,-0.317293 0.01111,-0.04342 -0.0054,-0.142425 -0.08733,-0.526583 -0.103866,-0.486831 -0.16095,-0.702471 -0.19327,-0.729671 -0.03811,-0.03206 -0.08844,-0.0374 -0.781864,-0.0832 -0.512819,-0.03387 -0.540805,-0.0378 -0.591695,-0.08527 -0.08087,-0.07544 -0.211408,-0.323683 -0.219108,-0.416513 -0.0059,-0.07055 0.02153,-0.125909 0.283187,-0.569991 0.25746,-0.436953 0.338488,-0.587599 0.33848,-0.630969 -1e-5,-0.02611 -0.01193,-0.04991 -0.04496,-0.09198 -0.103484,-0.131819 -0.715944,-0.748627 -0.825273,-0.830957 -0.07048,-0.05307 -0.08122,-0.04828 -0.688847,0.284737 -0.429068,0.235158 -0.52322,0.280418 -0.58136,0.280603 -0.09727,3.1e-4 -0.409542,-0.180524 -0.437182,-0.253214 -0.01521,-0.04001 -0.02761,-0.204089 -0.03927,-0.518315 -0.02699,-0.727285 -0.03311,-0.791667 -0.07493,-0.830957 -0.05147,-0.04836 -1.063102,-0.301641 -1.211813,-0.303341 -0.01181,-1.35e-4 -0.0221,-7.11e-4 -0.03152,0 z" /><path
       id="path1"
       style="display:none;opacity:1;fill:#ffffff;fill-opacity:1;stroke:none;stroke-width:1.32292;stroke-linecap:square;stroke-miterlimit:3;stroke-dasharray:none;stroke-opacity:1;paint-order:markers stroke fill"
       inkscape:label="FileTOML"
       d="M 7.026962,0 A 2,2 0 0 0 5.027084,1.9998779 V 31.866789 a 2,2 0 0 0 1.999878,1.999878 H 27.10429 a 2,2 0 0 0 1.999878,-1.999878 V 7.6145224 A 2.4142137,2.4142137 0 0 0 28.397234,5.9076498 L 23.196518,0.7069336 A 2.4142134,2.4142134 0 0 0 21.489645,0 Z M 8.8635424,9.7797649 H 12.5181 V 11.595158 H 10.829314 V 24.378874 H 12.5181 v 1.824695 H 8.8635424 Z m 12.7496096,0 h 3.654557 V 26.203569 h -3.654557 v -1.815393 h 1.688786 V 11.60446 h -1.688786 z m -8.613428,3.4550861 h 7.922514 v 1.902726 h -2.924886 v 8.851657 H 15.93908 v -8.851657 h -2.939356 z"
       transform="translate(-0.1322923)" /><path
       id="path2"
       style="display:inline;opacity:1;fill:#ffffff;fill-opacity:1;stroke:none;stroke-width:1.32292;stroke-linecap:square;stroke-miterlimit:3;stroke-dasharray:none;stroke-opacity:1;paint-order:markers stroke fill"
       inkscape:label="FileJSON"
       d="M 7.026962 0 A 2 2 0 0 0 5.027084 1.9998779 L 5.027084 31.866789 A 2 2 0 0 0 7.026962 33.866667 L 27.10429 33.866667 A 2 2 0 0 0 29.104168 31.866789 L 29.104168 7.6145224 A 2.4142137 2.4142137 0 0 0 28.397234 5.9076498 L 23.196518 0.7069336 A 2.4142134 2.4142134 0 0 0 21.489645 0 L 7.026962 0 z M 14.780494 10.432955 L 15.417148 10.432955 L 15.417148 11.857674 L 14.939657 11.857674 C 14.697123 11.857674 14.477325 11.887991 14.280266 11.948625 C 14.08826 12.004206 13.921517 12.097855 13.780038 12.229228 C 13.63856 12.360601 13.529752 12.534923 13.45396 12.752193 C 13.378168 12.964411 13.340272 13.229684 13.340272 13.54801 L 13.340272 14.874028 C 13.340272 15.252988 13.307773 15.576713 13.242087 15.844511 C 13.181453 16.112309 13.085105 16.336988 12.953732 16.518889 C 12.822359 16.695736 12.655616 16.834861 12.453504 16.935917 C 12.251392 17.031921 12.014254 17.100134 11.741403 17.140556 C 12.282052 17.20119 12.683752 17.413408 12.946497 17.77721 C 13.209243 18.135958 13.340272 18.689242 13.340272 19.437057 L 13.340272 21.362004 C 13.340272 21.690436 13.378168 21.963288 13.45396 22.180558 C 13.529752 22.397829 13.63856 22.572151 13.780038 22.703524 C 13.921517 22.834897 14.08826 22.928546 14.280266 22.984127 C 14.477325 23.039708 14.697123 23.067326 14.939657 23.067326 L 15.417148 23.067326 L 15.417148 24.492045 L 14.780494 24.492045 C 13.734564 24.492045 12.953904 24.239749 12.438518 23.734469 C 11.923132 23.234242 11.665439 22.438422 11.665439 21.347018 L 11.665439 19.421554 C 11.665439 18.901115 11.549051 18.509694 11.316623 18.246948 C 11.084194 17.984203 10.697653 17.852657 10.157003 17.852657 L 9.6795133 17.852657 L 9.6795133 16.420187 L 10.157003 16.420187 C 10.429855 16.420187 10.662629 16.392568 10.854635 16.336987 C 11.046642 16.276354 11.203107 16.185403 11.324374 16.064136 C 11.445641 15.942869 11.531712 15.788585 11.58224 15.601632 C 11.63782 15.409625 11.665439 15.182248 11.665439 14.919503 L 11.665439 13.585734 C 11.665439 13.065296 11.723374 12.607843 11.839588 12.213725 C 11.960855 11.819607 12.148154 11.491518 12.400794 11.228772 C 12.653434 10.966027 12.973944 10.768966 13.363009 10.637594 C 13.757128 10.501168 14.229739 10.432955 14.780494 10.432955 z M 18.706353 10.432955 L 19.343006 10.432955 C 20.393988 10.432955 21.177348 10.685252 21.692734 11.190532 C 22.208119 11.690759 22.465813 12.489277 22.465813 13.585734 L 22.465813 14.859041 C 22.465813 15.37948 22.579502 15.770901 22.806877 16.033647 C 23.039306 16.29134 23.425847 16.420187 23.966497 16.420187 L 24.451738 16.420187 L 24.451738 17.852657 L 23.966497 17.852657 C 23.693645 17.852657 23.461388 17.882974 23.269382 17.943608 C 23.077375 17.999189 22.920393 18.087957 22.799126 18.209225 C 22.682912 18.330492 22.597358 18.486957 22.541777 18.678963 C 22.491249 18.865917 22.465813 19.090595 22.465813 19.353341 L 22.465813 21.347018 C 22.465813 21.867456 22.405179 22.32221 22.283912 22.711275 C 22.167698 23.105394 21.983097 23.433483 21.730457 23.696228 C 21.477817 23.958974 21.154609 24.156034 20.760491 24.287407 C 20.366372 24.423832 19.893761 24.492045 19.343006 24.492045 L 18.706353 24.492045 L 18.706353 23.067326 L 19.191594 23.067326 C 19.434129 23.067326 19.651228 23.039708 19.843234 22.984127 C 20.040293 22.928546 20.209735 22.832198 20.351213 22.695773 C 20.492692 22.5644 20.6015 22.390077 20.677292 22.172807 C 20.753084 21.960589 20.79098 21.695316 20.79098 21.37699 L 20.79098 19.406568 C 20.79098 19.027608 20.821297 18.704399 20.88193 18.436601 C 20.947617 18.16375 21.043448 17.938555 21.169768 17.761707 C 21.301141 17.579806 21.467884 17.441198 21.669996 17.345195 C 21.872108 17.249191 22.109763 17.180978 22.382614 17.140556 C 21.841964 17.07487 21.440265 16.862651 21.17752 16.503902 C 20.919827 16.140101 20.79098 15.584118 20.79098 14.836304 L 20.79098 13.570748 C 20.79098 13.242316 20.753084 12.969464 20.677292 12.752193 C 20.6015 12.52987 20.492692 12.352849 20.351213 12.221476 C 20.209735 12.090104 20.040293 11.996454 19.843234 11.940873 C 19.651228 11.885293 19.434129 11.857674 19.191594 11.857674 L 18.706353 11.857674 L 18.706353 10.432955 z "
       transform="translate(-0.1322923)" /></g><style
     type="text/css"
     id="style1">
	.st0{fill:#FFFFFF;}
	.st1{fill:#7E7F7F;}
</style></svg>
