<?xml version="1.0" encoding="UTF-8" standalone="no"?>
<!-- Created with Inkscape (http://www.inkscape.org/) -->

<svg
   width="128"
   height="128"
   viewBox="0 0 33.866667 33.866667"
   version="1.1"
   id="svg1"
   inkscape:version="1.3.2 (091e20e, 2023-11-25, custom)"
   sodipodi:docname="InputIcons.svg"
   xmlns:inkscape="http://www.inkscape.org/namespaces/inkscape"
   xmlns:sodipodi="http://sodipodi.sourceforge.net/DTD/sodipodi-0.dtd"
   xmlns="http://www.w3.org/2000/svg"
   xmlns:svg="http://www.w3.org/2000/svg">
  <sodipodi:namedview
     id="namedview1"
     pagecolor="#505050"
     bordercolor="#ffffff"
     borderopacity="1"
     inkscape:showpageshadow="false"
     inkscape:pageopacity="0"
     inkscape:pagecheckerboard="1"
     inkscape:deskcolor="#505050"
     inkscape:document-units="px"
     labelstyle="default"
     inkscape:clip-to-page="false"
     shape-rendering="auto"
     inkscape:zoom="6.5241649"
     inkscape:cx="74.18574"
     inkscape:cy="64.146141"
     inkscape:window-width="2560"
     inkscape:window-height="1377"
     inkscape:window-x="2552"
     inkscape:window-y="-8"
     inkscape:window-maximized="1"
     inkscape:current-layer="layer2" />
  <defs
     id="defs1">
    <inkscape:path-effect
       effect="fillet_chamfer"
       id="path-effect10"
       is_visible="true"
       lpeversion="1"
       nodesatellites_param="F,0,0,1,0,1,0,1 @ F,0,0,1,0,1,0,1 @ F,0,0,1,0,1,0,1"
       radius="1"
       unit="px"
       method="auto"
       mode="F"
       chamfer_steps="1"
       flexible="false"
       use_knot_distance="true"
       apply_no_radius="true"
       apply_with_radius="true"
       only_selected="false"
       hide_knots="false" />
    <inkscape:path-effect
       effect="fillet_chamfer"
       id="path-effect9"
       is_visible="true"
       lpeversion="1"
       nodesatellites_param="F,0,0,1,0,1,0,1 @ F,0,0,1,0,1,0,1 @ F,0,0,1,0,1,0,1"
       radius="1"
       unit="px"
       method="auto"
       mode="F"
       chamfer_steps="1"
       flexible="false"
       use_knot_distance="true"
       apply_no_radius="true"
       apply_with_radius="true"
       only_selected="false"
       hide_knots="false" />
  </defs>
  <g
     inkscape:label="IcBoolean"
     inkscape:groupmode="layer"
     id="layer1"
     style="display:none">
    <path
       id="rect1"
       style="fill:#ffffff;stroke-width:1.50664;stroke-linecap:square;stroke-miterlimit:0;paint-order:markers stroke fill"
       d="M 1.0583333,1.0583333 V 32.279167 L 2.1166667,31.220833 V 2.1166667 H 31.220833 l 1.058334,-1.0583334 z"
       sodipodi:nodetypes="ccccccc" />
    <path
       id="path2"
       style="fill:#ffffff;stroke-width:1.50664;stroke-linecap:square;stroke-miterlimit:0;paint-order:markers stroke fill"
       d="m 32.808334,1.5875 -3.85868,3.8586793 A 1.984375,1.984375 0 0 1 28.796692,6.2833375 L 19.130615,29.131039 a 1.9845734,1.9845734 0 0 1 -2.915584,0.886767 L 9.0645631,25.331271 1.5875,32.808334 h 31.220834 z m -10.979692,10.979692 -9.898104,9.898104 4.470011,2.92902 z" />
    <path
       id="path5"
       style="color:#000000;fill:#ffffff;fill-opacity:1;stroke-linecap:round;stroke-linejoin:round;stroke-miterlimit:0;-inkscape-stroke:none;paint-order:markers stroke fill"
       d="m 26.981299,4.0555664 a 1.4552083,1.4552083 0 0 0 -1.350305,0.8878012 l -2.803447,6.6249184 5.476152,-5.4761513 0.0067,-0.01602 A 1.4552083,1.4552083 0 0 0 27.537338,4.1697714 1.4552083,1.4552083 0 0 0 26.981299,4.0555664 Z M 7.1670045,20.108334 a 1.4552083,1.4552083 0 0 0 -1.4872478,0.632002 1.4552083,1.4552083 0 0 0 0.4196127,2.015381 L 9.4469687,24.948865 11.548649,22.847184 7.6935873,20.320207 A 1.4552083,1.4552083 0 0 0 7.1670045,20.108334 Z" />
  </g>
  <g
     inkscape:groupmode="layer"
     id="layer2"
     inkscape:label="IcSingle"
     style="display:none">
    <circle
       style="fill:#ffffff;fill-opacity:1;stroke:none;stroke-width:2.82445;stroke-linecap:round;stroke-linejoin:round;stroke-miterlimit:0;stroke-dasharray:none;stroke-opacity:1;paint-order:markers stroke fill"
       id="path8"
       cx="16.933334"
       cy="16.933334"
       r="6.0609264" />
    <path
       id="rect8"
       style="fill:#ffffff;stroke-width:3.26277;stroke-linecap:round;stroke-linejoin:round;stroke-miterlimit:0;paint-order:markers stroke fill"
       d="M 8.2748668,11.006561 V 22.860106 A 0.41421364,0.41421364 157.5 0 1 7.5677599,23.152999 L 2.0552008,17.640442 a 0.99999994,0.99999994 89.999994 0 1 -2e-7,-1.414214 l 5.5125595,-5.51256 a 0.41421352,0.41421352 22.499998 0 1 0.7071067,0.292893 z"
       sodipodi:nodetypes="cccc"
       inkscape:path-effect="#path-effect10"
       inkscape:original-d="M 8.2748668,10.006561 V 23.860106 L 1.3480939,16.933335 Z" />
    <path
       id="path9"
       style="fill:#ffffff;stroke-width:3.26277;stroke-linecap:round;stroke-linejoin:round;stroke-miterlimit:0;paint-order:markers stroke fill"
       d="M 25.591809,22.860106 V 11.006561 a 0.41421386,0.41421386 157.49999 0 1 0.707107,-0.292894 l 5.512564,5.512559 a 0.99999921,0.99999921 89.999994 0 1 0,1.414213 l -5.512564,5.51256 a 0.41421373,0.41421373 22.500008 0 1 -0.707107,-0.292893 z"
       sodipodi:nodetypes="cccc"
       inkscape:path-effect="#path-effect9"
       inkscape:original-d="M 25.591809,23.860106 V 10.006561 l 6.926778,6.926771 z" />
  </g>
  <path
     id="path11"
     style="fill:#ffffff;fill-opacity:1;stroke:none;stroke-width:7.93481;stroke-linecap:round;stroke-linejoin:round;stroke-miterlimit:0;stroke-dasharray:none;stroke-opacity:1;paint-order:markers stroke fill"
     d="M 16.933333 1.0583333 A 15.875 15.875 0 0 0 1.0583333 16.933333 A 15.875 15.875 0 0 0 16.933333 32.808334 A 15.875 15.875 0 0 0 32.808334 16.933333 A 15.875 15.875 0 0 0 16.933333 1.0583333 z M 16.933333 4.6410604 A 12.292498 12.292498 0 0 1 29.225607 16.933333 A 12.292498 12.292498 0 0 1 16.933333 29.225607 A 12.292498 12.292498 0 0 1 4.6410604 16.933333 A 12.292498 12.292498 0 0 1 16.933333 4.6410604 z " />
  <g
     inkscape:groupmode="layer"
     id="layer3"
     inkscape:label="IcVector2">
    <circle
       style="fill:#ffffff;fill-opacity:1;stroke:none;stroke-width:5.84991;stroke-linecap:round;stroke-linejoin:round;stroke-miterlimit:0;stroke-dasharray:none;stroke-opacity:1;paint-order:markers stroke fill"
       id="circle11"
       cx="16.933334"
       cy="16.933334"
       r="11.238084" />
  </g>
</svg>
